<?xml version="1.0" encoding="utf-8"?>
<!-- Generator: Adobe Illustrator 17.0.0, SVG Export Plug-In . SVG Version: 6.00 Build 0)  -->
<!DOCTYPE svg PUBLIC "-//W3C//DTD SVG 1.1//EN" "http://www.w3.org/Graphics/SVG/1.1/DTD/svg11.dtd">
<svg version="1.1" id="Layer_1" xmlns="http://www.w3.org/2000/svg" xmlns:xlink="http://www.w3.org/1999/xlink" x="0px" y="0px"
	 width="369.25px" height="46.917px" viewBox="111.89 395.028 369.25 46.917" enable-background="new 111.89 395.028 369.25 46.917"
	 xml:space="preserve">
<path fill="#1799CC" d="M115.343,424.924c0-0.502-0.143-0.858-0.424-1.071c-0.283-0.21-0.715-0.389-1.284-0.539
	c-0.568-0.148-0.983-0.304-1.247-0.463c-0.257-0.16-0.389-0.444-0.389-0.853c0-0.538,0.27-0.912,0.808-1.12
	c0.545-0.216,1.175-0.32,1.894-0.32c0.299,0,0.744,0.011,1.324,0.025c0.589,0.02,1.032,0.03,1.338,0.03
	c1.503,0,2.942-0.035,4.307-0.1c1.373-0.064,2.614-0.139,3.723-0.219c1.114-0.086,1.732-0.126,1.85-0.126
	c1.271,0,2.476,0.14,3.609,0.414c1.138,0.274,2.162,0.689,3.068,1.247c0.91,0.557,1.629,1.256,2.151,2.094
	c0.521,0.838,0.777,1.799,0.777,2.881s-0.249,2.055-0.759,2.911c-0.501,0.858-1.205,1.582-2.096,2.17
	c-0.893,0.588-1.911,1.025-3.063,1.325c-1.15,0.293-2.354,0.442-3.614,0.442c-0.368,0-0.903-0.024-1.605-0.075
	c-0.703-0.044-1.211-0.069-1.518-0.069c-0.39,0-0.582,0.154-0.582,0.473v1.74c0.032,1.072,0.206,1.76,0.523,2.063
	c0.316,0.31,0.768,0.584,1.349,0.828c0.582,0.245,0.87,0.588,0.87,1.032c0,0.827-0.74,1.37-2.206,1.636
	c-1.469,0.263-2.995,0.393-4.59,0.393c-4.561,0-6.837-0.659-6.837-1.97c0-0.364,0.1-0.618,0.305-0.763
	c0.203-0.144,0.526-0.303,0.964-0.473c0.443-0.17,0.779-0.383,1.007-0.643c0.233-0.258,0.347-0.658,0.347-1.206L115.343,424.924
	L115.343,424.924z M124.98,423.493L124.98,423.493c-0.623,0-1.006,0.072-1.15,0.21c-0.143,0.14-0.218,0.389-0.218,0.747v4.483
	c0,0.338,0.037,0.597,0.113,0.781c0.079,0.18,0.235,0.316,0.469,0.399c0.235,0.085,0.583,0.13,1.043,0.13
	c1.116,0,1.95-0.31,2.493-0.921c0.546-0.619,0.815-1.411,0.815-2.394c0-0.628-0.131-1.212-0.401-1.735
	c-0.263-0.524-0.666-0.942-1.2-1.247C126.408,423.644,125.752,423.493,124.98,423.493L124.98,423.493z M138.206,430.787
	L138.206,430.787c0-1.56,0.348-3.001,1.048-4.328c0.701-1.326,1.69-2.477,2.967-3.454c1.28-0.978,2.762-1.73,4.451-2.258
	c1.688-0.528,3.504-0.794,5.447-0.794c2.343,0,4.393,0.376,6.16,1.117c1.762,0.749,3.207,1.705,4.322,2.877
	c1.12,1.172,1.939,2.394,2.466,3.66c0.528,1.272,0.791,2.433,0.791,3.48c0,1.56-0.382,3.005-1.143,4.323
	c-0.767,1.32-1.809,2.452-3.139,3.399c-1.329,0.947-2.848,1.679-4.562,2.188c-1.713,0.514-3.486,0.768-5.327,0.768
	c-1.856,0-3.613-0.269-5.268-0.812c-1.648-0.537-3.092-1.306-4.326-2.298c-1.233-0.992-2.194-2.164-2.871-3.505
	C138.547,433.809,138.206,432.352,138.206,430.787L138.206,430.787z M150.474,424.411L150.474,424.411
	c-0.942,0-1.679,0.329-2.214,0.992c-0.539,0.658-0.807,1.396-0.807,2.208c0,0.673,0.139,1.56,0.425,2.668
	c0.282,1.106,0.689,2.193,1.211,3.27c0.521,1.072,1.162,1.969,1.912,2.687c0.749,0.713,1.575,1.072,2.494,1.072
	c1.029,0,1.809-0.309,2.33-0.933c0.528-0.619,0.791-1.375,0.791-2.268c0-1.063-0.241-2.369-0.713-3.914
	c-0.479-1.545-1.18-2.896-2.108-4.053C152.863,424.989,151.762,424.411,150.474,424.411L150.474,424.411z M181.653,419.953
	L181.653,419.953c1.037,0,1.954,0.101,2.744,0.296c0.796,0.193,1.599,0.439,2.422,0.733c0.82,0.293,1.335,0.444,1.563,0.444
	c0.275,0,0.568-0.036,0.862-0.111c0.297-0.07,0.546-0.104,0.75-0.104c0.528,0,1.061,0.215,1.602,0.638
	c0.538,0.425,0.982,1.028,1.33,1.815c0.347,0.787,0.52,1.709,0.52,2.752c0,0.882-0.299,1.625-0.904,2.232
	c-0.605,0.603-1.414,0.907-2.44,0.907c-0.808,0-1.389-0.159-1.737-0.489c-0.355-0.324-0.903-0.972-1.653-1.939
	c-0.756-0.967-1.549-1.69-2.369-2.158c-0.828-0.468-1.967-0.703-3.41-0.703c-0.852,0-1.581,0.194-2.175,0.578
	c-0.6,0.384-1.038,0.868-1.327,1.452c-0.279,0.582-0.424,1.171-0.424,1.764c0,1.121,0.174,2.169,0.522,3.15
	c0.352,0.978,0.868,1.854,1.552,2.618c0.683,0.768,1.516,1.366,2.494,1.79c0.977,0.424,2.079,0.638,3.308,0.638
	c1.336,0,2.385-0.14,3.14-0.424c0.756-0.284,1.413-0.628,1.988-1.031c0.579-0.409,0.99-0.614,1.242-0.614
	c0.48,0,0.855,0.19,1.132,0.559c0.281,0.369,0.418,0.772,0.418,1.211c0,0.448-0.163,1.002-0.499,1.66
	c-0.337,0.654-0.782,1.222-1.321,1.7c-0.538,0.474-1.083,0.713-1.635,0.713c-0.293,0-0.923,0.175-1.886,0.524
	c-0.965,0.348-1.92,0.638-2.85,0.868c-0.926,0.228-2.012,0.343-3.246,0.343c-2.463,0-4.753-0.493-6.869-1.485
	c-2.108-0.992-3.786-2.333-5.021-4.018c-1.237-1.685-1.851-3.515-1.851-5.474c0-1.486,0.388-2.892,1.162-4.222
	c0.778-1.333,1.839-2.494,3.182-3.486c1.347-0.991,2.858-1.76,4.536-2.308C178.181,420.229,179.896,419.953,181.653,419.953
	L181.653,419.953z M205.963,425.049L205.963,425.049v1.969c0,0.653,0.055,1.107,0.17,1.361c0.107,0.249,0.402,0.373,0.873,0.373
	c0.769-0.064,1.812-0.094,3.13-0.094c2.443,0,4.336,0.279,5.682,0.837c0.67,0.279,1.318,0.683,1.936,1.211
	c0.623,0.53,1.126,1.146,1.507,1.854c0.39,0.708,0.584,1.46,0.584,2.257c0,1.148-0.258,2.215-0.781,3.212
	c-0.514,0.992-1.439,1.816-2.764,2.473c-1.322,0.658-3.114,0.988-5.372,0.988c-0.833,0-1.972-0.027-3.429-0.076
	c-1.45-0.044-2.536-0.07-3.264-0.07c-0.817,0-2.049,0.026-3.694,0.07c-1.648,0.049-2.882,0.076-3.703,0.076
	c-0.616,0-1.167-0.146-1.655-0.43c-0.482-0.285-0.724-0.668-0.724-1.156c0-0.395,0.182-0.685,0.54-0.863
	c0.367-0.18,0.758-0.369,1.185-0.569c0.427-0.198,0.792-0.562,1.092-1.086c0.299-0.528,0.45-1.33,0.456-2.413l0.07-8.614
	c0-1.257-0.173-2.066-0.514-2.423c-0.34-0.359-0.829-0.673-1.459-0.938c-0.628-0.259-0.944-0.647-0.944-1.162
	c0-0.532,0.251-0.947,0.754-1.235c0.503-0.289,1.116-0.435,1.84-0.435c0.985,0,2.217,0.035,3.71,0.105
	c1.491,0.069,2.678,0.105,3.553,0.105c0.035,0,0.391,0.015,1.054,0.045c0.665,0.03,1.122,0.046,1.355,0.046
	c0.256,0,1.666-0.051,4.22-0.15c2.557-0.1,3.965-0.151,4.228-0.151c0.458,0,0.901,0.225,1.347,0.674
	c0.451,0.448,0.817,1.012,1.099,1.695c0.287,0.682,0.426,1.357,0.426,2.029c0,0.549-0.194,1.027-0.576,1.445
	c-0.383,0.414-0.893,0.624-1.541,0.624c-0.647,0-1.425-0.353-2.328-1.066c-0.915-0.714-1.643-1.227-2.208-1.54
	c-0.56-0.32-1.486-0.474-2.763-0.474c-1.311,0-2.155,0.11-2.527,0.34C206.15,424.117,205.963,424.502,205.963,425.049
	L205.963,425.049z M205.963,434.766L205.963,434.766c0,1.087,0.065,1.884,0.205,2.403c0.135,0.518,0.329,0.843,0.564,0.967
	c0.239,0.126,0.578,0.185,1.028,0.185c1.001,0,1.829-0.305,2.492-0.908c0.661-0.603,0.99-1.306,0.99-2.108
	c0-1.003-0.293-1.85-0.873-2.549c-0.589-0.691-1.47-1.04-2.646-1.04c-0.556,0-0.987,0.104-1.292,0.313
	c-0.312,0.21-0.469,0.475-0.469,0.799L205.963,434.766L205.963,434.766z M248.249,436.411L248.249,436.411
	c0,0.478,0.069,0.842,0.207,1.096c0.142,0.25,0.446,0.484,0.903,0.697c0.446,0.2,0.765,0.375,0.947,0.525
	c0.184,0.149,0.278,0.393,0.278,0.732c0,0.604-0.427,1.128-1.278,1.561c-0.844,0.434-2.807,0.653-5.878,0.653
	c-4.13,0-6.19-0.679-6.19-2.029c0-0.548,0.27-0.972,0.82-1.283c0.547-0.303,0.965-0.652,1.26-1.051
	c0.292-0.393,0.436-1.261,0.436-2.607c0-0.329,0.012-0.738,0.037-1.227c0.021-0.483,0.035-0.793,0.035-0.927
	c0-0.638-0.191-0.957-0.566-0.957c-0.146,0-0.325,0.029-0.55,0.089c-0.434,0.134-1.13,0.533-2.071,1.197
	c-0.949,0.662-1.791,1.351-2.547,2.069c-0.751,0.714-1.129,1.231-1.129,1.546c0,0.518,0.06,0.882,0.187,1.102
	c0.126,0.214,0.319,0.394,0.569,0.538c0.252,0.144,0.44,0.299,0.563,0.465c0.126,0.158,0.194,0.447,0.194,0.861
	c0,1.476-2.086,2.214-6.263,2.214c-1.557,0-3.058-0.141-4.496-0.424c-1.436-0.283-2.155-0.857-2.155-1.73
	c0-0.533,0.383-0.947,1.148-1.256c0.452-0.179,0.756-0.329,0.924-0.449c0.168-0.119,0.318-0.374,0.453-0.762
	c0.135-0.389,0.232-0.996,0.296-1.819c0.06-0.823,0.089-2.035,0.089-3.635c0-2.099-0.016-3.639-0.049-4.616
	c-0.03-0.977-0.086-1.671-0.177-2.07c-0.089-0.403-0.204-0.652-0.341-0.757c-0.146-0.1-0.445-0.254-0.907-0.459
	c-0.392-0.174-0.686-0.339-0.884-0.488c-0.198-0.145-0.3-0.353-0.3-0.613c0-0.992,0.884-1.665,2.652-2.019
	c1.767-0.349,3.555-0.524,5.363-0.524c1.341,0,2.616,0.13,3.848,0.388c1.23,0.256,1.842,0.774,1.842,1.556
	c0,0.419-0.11,0.733-0.33,0.947s-0.588,0.453-1.109,0.723c-0.361,0.164-0.605,0.309-0.738,0.429
	c-0.13,0.124-0.232,0.339-0.287,0.643c-0.06,0.309-0.091,0.798-0.091,1.471c0,0.464-0.011,0.993-0.037,1.581
	c-0.022,0.587-0.032,0.951-0.032,1.08c0,0.379,0.059,0.634,0.181,0.763c0.112,0.13,0.376,0.194,0.785,0.194
	c0.359-0.055,0.938-0.369,1.752-0.947c0.816-0.573,1.616-1.206,2.397-1.894c0.779-0.684,1.267-1.158,1.455-1.407
	c0.219-0.299,0.326-0.568,0.326-0.801c0-0.224-0.082-0.454-0.257-0.688c-0.115-0.17-0.326-0.35-0.626-0.539
	c-0.291-0.185-0.514-0.359-0.645-0.509c-0.133-0.154-0.205-0.404-0.205-0.747c0-0.444,0.12-0.818,0.346-1.126
	c0.236-0.304,0.811-0.568,1.733-0.789c0.925-0.219,2.324-0.329,4.22-0.329c4.314,0,6.473,0.709,6.473,2.119
	c0,0.628-0.372,1.097-1.109,1.406c-0.459,0.169-0.771,0.338-0.94,0.508c-0.177,0.175-0.308,0.594-0.397,1.252
	c-0.088,0.663-0.135,1.759-0.135,3.294L248.249,436.411L248.249,436.411z M267.974,426.689L267.974,426.689
	c0-0.672-0.323-1.246-0.964-1.724c-0.649-0.474-1.541-0.723-2.698-0.753c-1.359,0-2.461,0.195-3.303,0.589
	c-0.836,0.393-1.664,0.997-2.485,1.804c-0.814,0.808-1.401,1.346-1.755,1.62c-0.352,0.269-0.882,0.408-1.592,0.408
	c-0.96-0.03-1.664-0.343-2.101-0.941c-0.442-0.594-0.666-1.356-0.666-2.288c0.042-1.031,0.253-1.875,0.635-2.532
	c0.377-0.663,0.839-1.137,1.378-1.426c0.548-0.289,1.097-0.434,1.657-0.434c0.191,0,0.428,0.039,0.724,0.114
	c0.288,0.08,0.575,0.12,0.858,0.12c0.164,0,0.506-0.074,1.023-0.215c0.508-0.144,1.073-0.29,1.689-0.428
	c0.611-0.141,1.398-0.27,2.35-0.379c0.952-0.115,2.054-0.17,3.305-0.17c1.926,0.035,3.659,0.309,5.215,0.833
	c1.554,0.519,2.771,1.222,3.645,2.093c0.883,0.878,1.32,1.834,1.32,2.872c-0.036,0.763-0.228,1.39-0.572,1.884
	c-0.347,0.494-0.699,0.847-1.06,1.072c-0.361,0.224-0.796,0.463-1.312,0.718c-0.52,0.254-0.783,0.442-0.799,0.577
	c0,0.12,0.32,0.294,0.957,0.518c0.635,0.23,1.215,0.484,1.745,0.773c0.525,0.289,1.012,0.758,1.451,1.41
	c0.445,0.659,0.664,1.532,0.664,2.623c0,1.386-0.644,2.557-1.95,3.514c-1.298,0.957-3.002,1.666-5.115,2.129
	c-2.101,0.463-4.359,0.693-6.773,0.693c-2.902-0.06-5.607-0.717-8.12-1.974c-0.913-0.449-1.715-1.047-2.409-1.804
	c-0.702-0.754-1.05-1.536-1.05-2.349c0-0.403,0.154-0.782,0.462-1.13c0.313-0.35,0.705-0.525,1.197-0.525
	c0.2,0.006,0.519,0.22,0.96,0.644c0.438,0.419,0.929,0.808,1.461,1.161c0.538,0.358,1.387,0.694,2.53,1.013
	c1.15,0.313,2.648,0.503,4.507,0.567c0.755,0,1.454-0.114,2.102-0.349c0.652-0.229,1.164-0.558,1.537-0.982
	c0.378-0.428,0.56-0.912,0.56-1.45c0-0.773-0.395-1.341-1.187-1.715c-0.797-0.374-1.725-0.559-2.796-0.559
	c-0.089-0.009-0.27-0.016-0.54-0.02c-0.264-0.005-0.467-0.01-0.61-0.01c-0.629,0-1.157-0.199-1.588-0.598
	c-0.426-0.399-0.641-0.848-0.641-1.346c0.014-0.489,0.281-0.922,0.782-1.296c0.51-0.369,1.099-0.557,1.763-0.557
	c0.022,0.005,0.121,0.015,0.287,0.025c0.176,0.01,0.536,0.02,1.086,0.035c1.268,0,2.287-0.13,3.049-0.384
	C267.542,427.906,267.938,427.417,267.974,426.689L267.974,426.689z M305.265,436.411L305.265,436.411
	c0,0.478,0.071,0.842,0.21,1.096c0.144,0.25,0.443,0.484,0.903,0.697c0.445,0.2,0.762,0.375,0.947,0.525
	c0.184,0.149,0.274,0.393,0.274,0.732c0,0.604-0.424,1.128-1.273,1.561c-0.844,0.434-2.811,0.653-5.881,0.653
	c-4.126,0-6.188-0.679-6.188-2.029c0-0.464,0.131-0.787,0.406-0.977c0.272-0.184,0.575-0.393,0.918-0.619
	c0.336-0.228,0.624-0.658,0.848-1.285c0.234-0.627,0.343-1.61,0.343-2.956c0-0.518-0.063-0.887-0.181-1.096
	c-0.119-0.215-0.315-0.345-0.592-0.389c-0.277-0.046-0.762-0.07-1.456-0.07c-1.542,0-2.602,0.03-3.17,0.09
	c-0.57,0.063-0.947,0.203-1.124,0.427c-0.177,0.225-0.268,0.63-0.268,1.212v1.083c0,1.171,0.128,1.929,0.384,2.269
	c0.252,0.337,0.624,0.652,1.117,0.941c0.48,0.289,0.728,0.683,0.728,1.186c0,0.903-0.755,1.497-2.259,1.785
	c-1.51,0.286-3.08,0.43-4.722,0.43c-1.558,0-3.056-0.141-4.494-0.424c-1.44-0.283-2.157-0.857-2.157-1.73
	c0-0.533,0.381-0.947,1.149-1.256c0.452-0.179,0.757-0.329,0.921-0.449c0.172-0.119,0.323-0.374,0.458-0.762
	c0.132-0.389,0.228-0.996,0.292-1.819c0.061-0.823,0.093-2.035,0.093-3.635c0-2.099-0.02-3.639-0.049-4.616
	c-0.03-0.977-0.09-1.671-0.176-2.07c-0.094-0.403-0.207-0.652-0.345-0.757c-0.143-0.1-0.442-0.254-0.904-0.459
	c-0.395-0.174-0.69-0.339-0.885-0.488c-0.199-0.145-0.302-0.353-0.302-0.613c0-0.992,0.889-1.665,2.654-2.019
	c1.771-0.349,3.553-0.524,5.363-0.524c1.335,0,2.615,0.13,3.849,0.388c1.227,0.256,1.841,0.774,1.841,1.556
	c0,0.419-0.109,0.733-0.331,0.947c-0.217,0.214-0.588,0.453-1.107,0.723c-0.329,0.149-0.564,0.324-0.713,0.513
	c-0.145,0.194-0.247,0.509-0.313,0.952c-0.06,0.438-0.091,1.095-0.091,1.974c0,0.629,0.134,1.027,0.39,1.203
	c0.264,0.174,0.7,0.263,1.332,0.263h0.938h1.83c0.729,0,1.263-0.034,1.591-0.109c0.33-0.075,0.536-0.185,0.604-0.339
	s0.105-0.413,0.105-0.778c0-1.445-0.095-2.383-0.286-2.816c-0.198-0.429-0.458-0.717-0.795-0.863
	c-0.481-0.24-0.828-0.444-1.028-0.609c-0.203-0.169-0.306-0.423-0.306-0.762c0-0.359,0.132-0.693,0.395-1.012
	c0.262-0.315,0.912-0.598,1.939-0.853c1.03-0.254,2.59-0.379,4.682-0.379c4.316,0,6.474,0.709,6.474,2.119
	c0,0.628-0.373,1.097-1.109,1.406c-0.457,0.169-0.775,0.338-0.939,0.508c-0.178,0.175-0.306,0.594-0.396,1.252
	c-0.091,0.663-0.14,1.759-0.14,3.294v7.777L305.265,436.411L305.265,436.411z M323.705,420.378L323.705,420.378
	c1.416,0,2.522-0.04,3.321-0.124c0.789-0.086,1.429-0.184,1.909-0.301c0.482-0.114,0.763-0.173,0.841-0.173
	c0.631,0,1.163,0.244,1.607,0.737c0.437,0.493,0.766,1.072,0.982,1.745c0.22,0.673,0.33,1.261,0.33,1.765
	c0,0.583-0.16,1.087-0.465,1.515c-0.299,0.423-0.768,0.638-1.407,0.638c-0.599,0-1.047-0.164-1.358-0.489
	c-0.306-0.328-0.62-0.678-0.931-1.047c-0.312-0.369-0.85-0.683-1.602-0.948c-0.765-0.259-1.921-0.388-3.483-0.388
	c-1.14,0-1.954,0.065-2.439,0.188c-0.486,0.126-0.799,0.36-0.943,0.694c-0.138,0.339-0.206,0.888-0.206,1.661v1.495
	c0,0.633,0.037,1.057,0.124,1.281c0.076,0.221,0.261,0.359,0.554,0.424c0.283,0.059,0.825,0.089,1.622,0.089
	c0.603,0,1.018-0.139,1.226-0.423c0.213-0.285,0.367-0.698,0.47-1.251c0.097-0.553,0.239-0.962,0.427-1.237
	c0.178-0.272,0.557-0.408,1.112-0.408c0.906,0,1.5,0.488,1.786,1.471c0.292,0.982,0.437,2.008,0.437,3.076
	c0,0.609-0.06,1.276-0.18,2.004c-0.117,0.728-0.36,1.381-0.711,1.948c-0.363,0.575-0.863,0.858-1.512,0.858
	c-0.479,0-0.785-0.103-0.907-0.313c-0.117-0.216-0.237-0.598-0.361-1.157c-0.126-0.554-0.348-0.973-0.665-1.251
	c-0.323-0.274-0.887-0.414-1.702-0.414c-0.647,0-1.056,0.184-1.225,0.549c-0.166,0.363-0.25,0.876-0.25,1.545
	c0,1.381,0.064,2.348,0.197,2.891c0.133,0.548,0.399,0.897,0.815,1.042c0.416,0.144,1.154,0.219,2.229,0.219h0.895
	c1.673,0,2.941-0.189,3.799-0.573c0.862-0.379,1.486-0.848,1.863-1.396c0.384-0.548,0.755-1.062,1.114-1.531
	c0.355-0.472,0.839-0.708,1.456-0.708c0.532,0,0.956,0.199,1.266,0.599c0.312,0.398,0.47,0.837,0.47,1.312
	c0,0.672-0.19,1.46-0.548,2.357c-0.368,0.897-0.813,1.676-1.35,2.339c-0.533,0.657-1.03,0.987-1.486,0.987
	c-0.025,0-0.544-0.055-1.568-0.164c-1.02-0.109-2.032-0.165-3.033-0.165h-14.778c-1.607,0-2.404-0.429-2.404-1.287
	c0-0.432,0.286-0.777,0.871-1.04c0.585-0.261,1.011-0.509,1.295-0.743c0.273-0.235,0.456-0.808,0.525-1.715
	c0.224-2.742,0.33-4.497,0.33-5.264l-0.222-5.055c-0.042-0.912-0.193-1.577-0.464-1.989c-0.261-0.409-0.56-0.688-0.893-0.837
	c-0.322-0.151-0.657-0.325-1-0.524c-0.341-0.199-0.513-0.528-0.513-0.987c0-1.037,1.031-1.555,3.091-1.555
	c0.162,0,0.39,0.005,0.683,0.014c0.297,0.01,0.493,0.016,0.607,0.016h10.352L323.705,420.378L323.705,420.378z M349.337,419.953
	L349.337,419.953c1.039,0,1.96,0.101,2.748,0.296c0.798,0.193,1.6,0.439,2.421,0.733c0.824,0.293,1.336,0.444,1.56,0.444
	c0.281,0,0.573-0.036,0.865-0.111c0.294-0.07,0.546-0.104,0.751-0.104c0.524,0,1.06,0.215,1.599,0.638
	c0.538,0.425,0.982,1.028,1.331,1.815c0.347,0.787,0.524,1.709,0.524,2.752c0,0.882-0.303,1.625-0.908,2.232
	c-0.607,0.603-1.415,0.907-2.44,0.907c-0.806,0-1.391-0.159-1.735-0.489c-0.353-0.324-0.907-0.972-1.655-1.939
	c-0.751-0.967-1.546-1.69-2.369-2.158c-0.824-0.468-1.963-0.703-3.406-0.703c-0.849,0-1.584,0.194-2.174,0.578
	c-0.602,0.384-1.038,0.868-1.331,1.452c-0.276,0.582-0.422,1.171-0.422,1.764c0,1.121,0.174,2.169,0.519,3.15
	c0.357,0.978,0.872,1.854,1.555,2.618c0.683,0.768,1.514,1.366,2.493,1.79c0.975,0.424,2.078,0.638,3.308,0.638
	c1.338,0,2.388-0.14,3.138-0.424c0.758-0.284,1.415-0.628,1.992-1.031c0.575-0.409,0.989-0.614,1.238-0.614
	c0.483,0,0.86,0.19,1.135,0.559c0.281,0.369,0.421,0.772,0.421,1.211c0,0.448-0.169,1.002-0.504,1.66
	c-0.337,0.654-0.781,1.222-1.318,1.7c-0.542,0.474-1.088,0.713-1.637,0.713c-0.291,0-0.926,0.175-1.89,0.524
	c-0.963,0.348-1.915,0.638-2.848,0.868c-0.927,0.228-2.012,0.343-3.244,0.343c-2.464,0-4.753-0.493-6.867-1.485
	c-2.111-0.992-3.79-2.333-5.022-4.018c-1.236-1.685-1.854-3.515-1.854-5.474c0-1.486,0.391-2.892,1.164-4.222
	c0.778-1.333,1.839-2.494,3.184-3.486c1.348-0.991,2.854-1.76,4.535-2.308C345.869,420.229,347.583,419.953,349.337,419.953
	L349.337,419.953z M373.653,425.049L373.653,425.049v1.969c0,0.653,0.055,1.107,0.167,1.361c0.107,0.249,0.401,0.373,0.875,0.373
	c0.769-0.064,1.809-0.094,3.129-0.094c2.445,0,4.339,0.279,5.68,0.837c0.672,0.279,1.318,0.683,1.935,1.211
	c0.626,0.53,1.126,1.146,1.514,1.854c0.389,0.708,0.578,1.46,0.578,2.257c0,1.148-0.257,2.215-0.776,3.212
	c-0.516,0.992-1.439,1.816-2.763,2.473c-1.325,0.658-3.115,0.988-5.377,0.988c-0.83,0-1.971-0.027-3.428-0.076
	c-1.447-0.044-2.533-0.07-3.263-0.07c-0.818,0-2.05,0.026-3.691,0.07c-1.649,0.049-2.883,0.076-3.703,0.076
	c-0.615,0-1.168-0.146-1.655-0.43c-0.486-0.285-0.723-0.668-0.723-1.156c0-0.395,0.177-0.685,0.539-0.863
	c0.364-0.18,0.761-0.369,1.186-0.569c0.424-0.198,0.787-0.562,1.089-1.086c0.302-0.528,0.449-1.33,0.457-2.413l0.07-8.614
	c0-1.257-0.175-2.066-0.515-2.423c-0.341-0.359-0.827-0.673-1.455-0.938c-0.629-0.259-0.95-0.647-0.95-1.162
	c0-0.532,0.258-0.947,0.757-1.235c0.505-0.289,1.116-0.435,1.842-0.435c0.984,0,2.215,0.035,3.706,0.105
	c1.495,0.069,2.681,0.105,3.557,0.105c0.034,0,0.386,0.015,1.055,0.045c0.661,0.03,1.118,0.046,1.352,0.046
	c0.259,0,1.665-0.051,4.218-0.15c2.562-0.1,3.967-0.151,4.234-0.151c0.453,0,0.895,0.225,1.346,0.674
	c0.448,0.448,0.814,1.012,1.098,1.695c0.289,0.682,0.425,1.357,0.425,2.029c0,0.549-0.189,1.027-0.576,1.445
	c-0.382,0.414-0.89,0.624-1.539,0.624c-0.648,0-1.424-0.353-2.332-1.066c-0.909-0.714-1.642-1.227-2.205-1.54
	c-0.563-0.32-1.485-0.474-2.761-0.474c-1.312,0-2.162,0.11-2.531,0.34C373.836,424.117,373.653,424.502,373.653,425.049
	L373.653,425.049z M373.653,434.766L373.653,434.766c0,1.087,0.067,1.884,0.201,2.403c0.14,0.518,0.332,0.843,0.568,0.967
	c0.236,0.126,0.578,0.185,1.028,0.185c1.001,0,1.826-0.305,2.494-0.908c0.656-0.603,0.987-1.306,0.987-2.108
	c0-1.003-0.294-1.85-0.874-2.549c-0.585-0.691-1.47-1.04-2.643-1.04c-0.56,0-0.987,0.104-1.291,0.313
	c-0.314,0.21-0.471,0.475-0.471,0.799v1.938H373.653z"/>
<path fill="#1799CC" d="M395.44,430.548c0.592-1.112,1.053-1.988,1.359-2.636c0.32-0.649,0.596-1.361,0.85-2.14
	c0.246-0.783,0.371-1.54,0.371-2.279c0-1.116,0.349-1.997,1.038-2.646c0.687-0.653,1.797-0.976,3.317-0.976
	c1.385,0,2.571,0.428,3.559,1.281c0.991,0.852,1.973,1.974,2.945,3.354c0.336,0.464,1.495,2.383,3.486,5.762
	c1.995,3.38,3.277,5.615,3.853,6.711c0.263,0.508,0.565,0.857,0.882,1.052c0.317,0.193,0.69,0.344,1.101,0.443
	c0.421,0.106,0.712,0.22,0.889,0.345c0.165,0.119,0.249,0.374,0.249,0.762c0,0.614-0.365,1.072-1.09,1.381
	c-0.733,0.309-1.581,0.51-2.546,0.589c-0.969,0.084-2.055,0.124-3.261,0.124c-2.125,0-3.715-0.03-4.77-0.095
	c-1.062-0.066-1.898-0.23-2.524-0.498c-0.632-0.276-0.94-0.704-0.94-1.292c0-0.319,0.098-0.558,0.281-0.713
	c0.192-0.16,0.474-0.294,0.84-0.409c0.365-0.115,0.636-0.22,0.81-0.319c0.171-0.099,0.263-0.27,0.263-0.504
	c0-0.463-0.158-0.797-0.469-0.996c-0.318-0.195-0.917-0.324-1.804-0.378c-0.893-0.06-2.36-0.09-4.414-0.09
	c-1.098,0-1.865,0.084-2.315,0.259c-0.447,0.174-0.671,0.593-0.671,1.265c0,0.254,0.083,0.429,0.258,0.519
	c0.174,0.095,0.46,0.19,0.856,0.295c0.396,0.104,0.695,0.234,0.891,0.379c0.197,0.145,0.297,0.399,0.297,0.752
	c0,1.217-1.774,1.826-5.326,1.826c-1.607,0-2.828-0.075-3.646-0.23c-0.817-0.154-1.342-0.353-1.589-0.599
	c-0.246-0.249-0.369-0.558-0.369-0.937c0-0.413,0.111-0.677,0.334-0.808c0.228-0.124,0.66-0.293,1.296-0.513
	c0.632-0.214,1.085-0.464,1.354-0.744c0.439-0.447,1.136-1.52,2.092-3.205L395.44,430.548L395.44,430.548z M402.987,432.702
	L402.987,432.702c0.956,0,1.437-0.13,1.437-0.389c0-0.314-0.443-1.122-1.328-2.422c-0.326-0.494-0.609-0.882-0.848-1.162
	c-0.244-0.284-0.54-0.424-0.885-0.424c-0.26,0-0.493,0.135-0.71,0.404c-0.216,0.27-0.393,0.553-0.529,0.842
	c-0.134,0.289-0.261,0.583-0.376,0.878c-0.077,0.164-0.165,0.369-0.28,0.598c-0.11,0.233-0.214,0.478-0.319,0.722
	c-0.107,0.249-0.154,0.428-0.154,0.534c0,0.184,0.104,0.299,0.303,0.344c0.198,0.049,0.536,0.075,0.999,0.075L402.987,432.702
	L402.987,432.702z M446.527,436.411L446.527,436.411c0,0.478,0.071,0.842,0.211,1.096c0.145,0.25,0.441,0.484,0.905,0.697
	c0.441,0.2,0.761,0.375,0.947,0.525c0.18,0.149,0.274,0.393,0.274,0.732c0,0.604-0.423,1.128-1.276,1.561
	c-0.841,0.434-2.807,0.653-5.879,0.653c-4.13,0-6.191-0.679-6.191-2.029c0-0.464,0.13-0.787,0.408-0.977
	c0.272-0.184,0.577-0.393,0.921-0.619c0.335-0.228,0.619-0.658,0.846-1.285c0.229-0.627,0.342-1.61,0.342-2.956
	c0-0.518-0.06-0.887-0.177-1.096c-0.122-0.215-0.32-0.345-0.594-0.389c-0.278-0.046-0.761-0.07-1.457-0.07
	c-1.54,0-2.602,0.03-3.172,0.09c-0.566,0.063-0.946,0.203-1.119,0.427c-0.18,0.225-0.268,0.63-0.268,1.212v1.083
	c0,1.171,0.127,1.929,0.384,2.269c0.25,0.337,0.622,0.652,1.114,0.941c0.481,0.289,0.732,0.683,0.732,1.186
	c0,0.903-0.755,1.497-2.26,1.785c-1.51,0.286-3.083,0.43-4.723,0.43c-1.555,0-3.058-0.141-4.495-0.424
	c-1.439-0.283-2.157-0.857-2.157-1.73c0-0.533,0.381-0.947,1.15-1.256c0.451-0.179,0.757-0.329,0.922-0.449
	c0.171-0.119,0.322-0.374,0.458-0.762c0.133-0.389,0.227-0.996,0.294-1.819c0.06-0.823,0.09-2.035,0.09-3.635
	c0-2.099-0.02-3.639-0.05-4.616s-0.09-1.671-0.177-2.07c-0.092-0.403-0.207-0.652-0.342-0.757c-0.147-0.1-0.443-0.254-0.907-0.459
	c-0.396-0.174-0.689-0.339-0.888-0.488c-0.194-0.145-0.297-0.353-0.297-0.613c0-0.992,0.887-1.665,2.655-2.019
	c1.767-0.349,3.549-0.524,5.361-0.524c1.334,0,2.613,0.13,3.848,0.388c1.226,0.256,1.839,0.774,1.839,1.556
	c0,0.419-0.106,0.733-0.328,0.947c-0.216,0.214-0.587,0.453-1.109,0.723c-0.329,0.149-0.565,0.324-0.713,0.513
	c-0.142,0.194-0.243,0.509-0.312,0.952c-0.058,0.438-0.089,1.095-0.089,1.974c0,0.629,0.132,1.027,0.387,1.203
	c0.268,0.174,0.704,0.263,1.333,0.263h0.937h1.831c0.733,0,1.262-0.034,1.593-0.109c0.327-0.075,0.536-0.185,0.598-0.339
	c0.072-0.154,0.107-0.413,0.107-0.778c0-1.445-0.096-2.383-0.285-2.816c-0.196-0.429-0.456-0.717-0.792-0.863
	c-0.484-0.24-0.832-0.444-1.031-0.609c-0.204-0.169-0.307-0.423-0.307-0.762c0-0.359,0.135-0.693,0.399-1.012
	c0.26-0.315,0.904-0.598,1.936-0.853c1.032-0.254,2.593-0.379,4.683-0.379c4.314,0,6.472,0.709,6.472,2.119
	c0,0.628-0.372,1.097-1.109,1.406c-0.456,0.169-0.774,0.338-0.939,0.508c-0.175,0.175-0.305,0.594-0.397,1.252
	c-0.092,0.663-0.139,1.759-0.139,3.294v7.777L446.527,436.411L446.527,436.411z M466.176,437.308L466.176,437.308
	c-1.876-1.854-3.061-2.781-3.553-2.781c-0.722,0-1.078,0.549-1.078,1.645v0.629c0,0.319,0.095,0.582,0.281,0.791
	c0.188,0.21,0.472,0.439,0.838,0.694c0.372,0.248,0.652,0.488,0.851,0.706c0.193,0.226,0.297,0.505,0.297,0.829
	c0,0.374-0.175,0.693-0.522,0.962c-0.345,0.265-1.05,0.479-2.11,0.643c-1.062,0.165-2.569,0.25-4.524,0.25
	c-2.597,0-4.309-0.155-5.147-0.464c-0.834-0.309-1.254-0.764-1.254-1.362c0-0.349,0.071-0.593,0.226-0.742
	c0.139-0.149,0.377-0.319,0.717-0.518c0.33-0.195,0.608-0.434,0.818-0.712c0.22-0.286,0.371-0.699,0.469-1.257
	c0.24-1.242,0.36-3.007,0.36-5.29c0-1.286-0.018-2.383-0.059-3.29c-0.044-0.903-0.147-1.756-0.302-2.548
	c-0.105-0.573-0.263-0.991-0.5-1.257c-0.225-0.268-0.525-0.494-0.893-0.683c-0.364-0.19-0.619-0.364-0.766-0.519
	c-0.148-0.159-0.221-0.433-0.221-0.827c0-0.579,0.47-1.083,1.415-1.51c0.94-0.43,2.99-0.645,6.142-0.645
	c1.468,0,2.745,0.12,3.817,0.354c1.07,0.233,1.613,0.793,1.613,1.675c0,0.403-0.218,0.768-0.643,1.092
	c-0.419,0.322-0.745,0.662-0.981,1.01c-0.241,0.356-0.355,1.038-0.355,2.05c0,0.837,0.231,1.256,0.686,1.256
	c0.297,0,0.75-0.259,1.359-0.778c0.609-0.518,1.165-1.093,1.685-1.721c0.506-0.627,0.764-1.051,0.764-1.271
	c0-0.218-0.094-0.482-0.287-0.797c-0.198-0.309-0.294-0.573-0.294-0.787c0-0.878,0.612-1.446,1.834-1.7
	c1.228-0.255,2.77-0.384,4.639-0.384h0.757c3.425,0,5.138,0.658,5.138,1.97c0,0.717-0.236,1.146-0.722,1.295
	c-0.483,0.151-1.234,0.246-2.26,0.28c-1.03,0.041-1.699,0.195-2.008,0.464c-0.414,0.294-0.905,0.653-1.487,1.066
	c-0.573,0.415-1.102,0.858-1.577,1.327c-0.477,0.473-0.709,0.898-0.709,1.276c0,0.34,0.104,0.643,0.324,0.912
	c0.213,0.264,0.584,0.657,1.11,1.182l7.517,7.154c0.245,0.229,0.691,0.478,1.346,0.752c0.653,0.28,1.136,0.539,1.45,0.783
	c0.312,0.243,0.469,0.645,0.469,1.187c0,1.097-1.08,1.646-3.232,1.646h-6.117c-0.496,0-0.856-0.03-1.079-0.084
	c-0.222-0.056-0.44-0.175-0.666-0.364c-0.215-0.189-0.594-0.558-1.123-1.107L466.176,437.308L466.176,437.308z"/>
<path fill="#FFFFFF" d="M112.575,409.62l3.779-11.32h1.433l4.011,11.32h-1.484l-1.14-3.431h-4.148l-1.069,3.431H112.575
	L112.575,409.62z M115.409,404.972h3.357l-1.027-3.138c-0.31-0.954-0.544-1.742-0.706-2.364c-0.135,0.738-0.316,1.463-0.544,2.179
	L115.409,404.972L115.409,404.972z M122.859,398.3h1.307v4.964c0.593,0,1.013-0.134,1.254-0.401c0.243-0.266,0.55-0.904,0.926-1.916
	c0.273-0.746,0.498-1.27,0.677-1.576c0.177-0.308,0.429-0.567,0.757-0.775c0.326-0.208,0.688-0.314,1.083-0.314
	c0.502,0,0.766,0.005,0.794,0.016v1.297c-0.046,0-0.133-0.003-0.262-0.008c-0.144-0.005-0.232-0.008-0.264-0.008
	c-0.415,0-0.724,0.116-0.926,0.348c-0.206,0.232-0.44,0.727-0.706,1.483c-0.33,0.959-0.61,1.565-0.84,1.815
	c-0.227,0.248-0.502,0.448-0.818,0.598c0.635,0.2,1.264,0.878,1.883,2.026l2.029,3.768h-1.618l-1.654-3.067
	c-0.451-0.851-0.83-1.436-1.133-1.752c-0.305-0.319-0.697-0.477-1.181-0.477v5.297h-1.307V398.3L122.859,398.3L122.859,398.3z
	 M130.874,398.3h1.307v9.992h5.118V398.3h1.307v9.992h0.894v4.474h-1.156v-3.146h-7.471L130.874,398.3L130.874,398.3z M141.05,398.3
	h1.184v8.965l5.244-8.965h1.291v11.32h-1.183v-8.941l-5.23,8.941h-1.305V398.3H141.05z M150.514,404.11
	c0-1.876,0.44-3.346,1.318-4.408c0.878-1.062,2.011-1.591,3.401-1.591c0.91,0,1.729,0.25,2.46,0.748
	c0.729,0.498,1.286,1.194,1.669,2.087c0.383,0.891,0.576,1.903,0.576,3.033c0,1.146-0.202,2.174-0.605,3.078
	c-0.404,0.906-0.975,1.592-1.713,2.055c-0.741,0.466-1.539,0.698-2.394,0.698c-0.929,0-1.756-0.258-2.488-0.772
	c-0.729-0.514-1.284-1.215-1.66-2.106C150.702,406.045,150.514,405.104,150.514,404.11L150.514,404.11z M151.862,404.137
	c0,1.362,0.319,2.435,0.956,3.218c0.637,0.782,1.438,1.175,2.401,1.175c0.982,0,1.786-0.396,2.422-1.186
	c0.633-0.79,0.949-1.913,0.949-3.368c0-0.919-0.135-1.723-0.406-2.408c-0.27-0.685-0.667-1.217-1.188-1.594
	c-0.523-0.377-1.107-0.567-1.757-0.567c-0.922,0-1.715,0.364-2.38,1.091C152.195,401.225,151.862,402.437,151.862,404.137
	L151.862,404.137z M161.67,409.62V398.3h1.307v4.664h5.091V398.3h1.307v11.32h-1.307v-5.328h-5.091v5.328H161.67L161.67,409.62z
	 M171.578,409.62V398.3h7.113v1.328h-5.806v3.478h5.435v1.328h-5.435v3.858h6.04v1.328H171.578L171.578,409.62z M180.728,409.62
	V398.3h3.719c0.653,0,1.153,0.037,1.499,0.108c0.484,0.092,0.89,0.269,1.217,0.527c0.328,0.261,0.592,0.625,0.791,1.091
	c0.2,0.466,0.298,0.98,0.298,1.542c0,0.959-0.266,1.773-0.8,2.438c-0.532,0.666-1.497,0.999-2.892,0.999h-2.527v4.616
	L180.728,409.62L180.728,409.62z M182.035,403.676h2.546c0.844,0,1.44-0.179,1.796-0.54c0.353-0.361,0.53-0.867,0.53-1.523
	c0-0.472-0.103-0.878-0.312-1.215s-0.484-0.561-0.823-0.669c-0.22-0.066-0.626-0.1-1.215-0.1h-2.52v4.047L182.035,403.676
	L182.035,403.676z M189.96,409.62V398.3h1.307v4.664h5.091V398.3h1.307v11.32h-1.307v-5.328h-5.091v5.328H189.96L189.96,409.62z
	 M199.91,398.3h1.307v4.822h2.346c1.538,0,2.55,0.327,3.036,0.983c0.484,0.653,0.727,1.397,0.727,2.227
	c0,0.877-0.259,1.644-0.78,2.303c-0.518,0.656-1.481,0.986-2.891,0.986h-3.745V398.3L199.91,398.3z M201.216,408.34h2.376
	c0.816,0,1.41-0.158,1.777-0.474c0.369-0.316,0.553-0.822,0.553-1.518c0-0.472-0.112-0.87-0.335-1.188
	c-0.223-0.319-0.511-0.522-0.865-0.609c-0.351-0.087-0.94-0.132-1.766-0.132h-1.741v3.921H201.216z M208.509,398.3h1.307v11.32
	h-1.307V398.3L208.509,398.3z M212.049,398.3h1.184v8.965l5.244-8.965h1.291v11.32h-1.184v-8.941l-5.23,8.941h-1.305L212.049,398.3
	L212.049,398.3z M216.961,395.581h0.825c-0.066,0.651-0.273,1.152-0.617,1.499c-0.344,0.35-0.8,0.524-1.371,0.524
	c-0.573,0-1.032-0.174-1.374-0.519c-0.342-0.348-0.548-0.849-0.615-1.505h0.826c0.062,0.356,0.188,0.622,0.374,0.796
	c0.186,0.176,0.438,0.263,0.752,0.263c0.365,0,0.64-0.084,0.826-0.256C216.773,396.216,216.899,395.947,216.961,395.581
	L216.961,395.581z M225.734,409.62V398.3h3.719c0.653,0,1.153,0.037,1.5,0.108c0.484,0.092,0.89,0.269,1.218,0.527
	c0.328,0.261,0.591,0.625,0.791,1.091c0.199,0.466,0.298,0.98,0.298,1.542c0,0.959-0.266,1.773-0.8,2.438
	c-0.532,0.666-1.498,0.999-2.892,0.999h-2.527v4.616L225.734,409.62L225.734,409.62z M227.041,403.676h2.545
	c0.844,0,1.44-0.179,1.795-0.54c0.353-0.361,0.53-0.867,0.53-1.523c0-0.472-0.103-0.878-0.312-1.215s-0.484-0.561-0.823-0.669
	c-0.22-0.066-0.626-0.1-1.215-0.1h-2.52V403.676L227.041,403.676z M234.209,404.11c0-1.876,0.44-3.346,1.318-4.408
	c0.879-1.062,2.011-1.591,3.401-1.591c0.911,0,1.729,0.25,2.46,0.748c0.729,0.498,1.286,1.194,1.67,2.087
	c0.383,0.891,0.576,1.903,0.576,3.033c0,1.146-0.202,2.174-0.605,3.078c-0.403,0.906-0.975,1.592-1.713,2.055
	c-0.741,0.466-1.539,0.698-2.394,0.698c-0.929,0-1.756-0.258-2.488-0.772c-0.729-0.514-1.284-1.215-1.66-2.106
	C234.397,406.045,234.209,405.104,234.209,404.11L234.209,404.11z M235.558,404.137c0,1.362,0.319,2.435,0.956,3.218
	c0.637,0.782,1.438,1.175,2.401,1.175c0.981,0,1.786-0.396,2.422-1.186c0.633-0.79,0.949-1.913,0.949-3.368
	c0-0.919-0.135-1.723-0.406-2.408c-0.271-0.685-0.667-1.217-1.188-1.594c-0.523-0.377-1.108-0.567-1.757-0.567
	c-0.922,0-1.715,0.364-2.38,1.091C235.89,401.225,235.558,402.437,235.558,404.137L235.558,404.137z M252.327,405.649l1.307,0.38
	c-0.273,1.231-0.764,2.166-1.472,2.811c-0.709,0.646-1.576,0.97-2.601,0.97c-1.06,0-1.922-0.248-2.587-0.746
	c-0.665-0.495-1.169-1.215-1.516-2.155c-0.346-0.943-0.52-1.953-0.52-3.033c0-1.178,0.195-2.205,0.587-3.083
	c0.392-0.878,0.949-1.544,1.672-2c0.722-0.456,1.518-0.682,2.385-0.682c0.986,0,1.814,0.287,2.483,0.864
	c0.672,0.577,1.14,1.386,1.403,2.43l-1.279,0.348c-0.227-0.822-0.56-1.423-0.993-1.797c-0.433-0.377-0.979-0.564-1.637-0.564
	c-0.754,0-1.387,0.208-1.894,0.624s-0.864,0.977-1.068,1.678c-0.206,0.704-0.309,1.428-0.309,2.174c0,0.962,0.121,1.802,0.365,2.519
	c0.243,0.719,0.621,1.254,1.135,1.61c0.514,0.356,1.069,0.532,1.667,0.532c0.729,0,1.344-0.243,1.848-0.725
	C251.807,407.32,252.148,406.603,252.327,405.649L252.327,405.649z M262.263,405.649l1.307,0.38
	c-0.273,1.231-0.764,2.166-1.472,2.811c-0.709,0.646-1.576,0.97-2.6,0.97c-1.059,0-1.922-0.248-2.587-0.746
	c-0.665-0.495-1.169-1.215-1.516-2.155c-0.346-0.943-0.521-1.953-0.521-3.033c0-1.178,0.195-2.205,0.587-3.083
	c0.392-0.878,0.949-1.544,1.672-2c0.722-0.456,1.518-0.682,2.385-0.682c0.986,0,1.814,0.287,2.483,0.864
	c0.672,0.577,1.14,1.386,1.403,2.43l-1.28,0.348c-0.227-0.822-0.56-1.423-0.993-1.797c-0.433-0.377-0.979-0.564-1.637-0.564
	c-0.755,0-1.388,0.208-1.894,0.624c-0.507,0.416-0.864,0.977-1.068,1.678c-0.206,0.704-0.31,1.428-0.31,2.174
	c0,0.962,0.121,1.802,0.365,2.519c0.243,0.719,0.621,1.254,1.135,1.61s1.069,0.532,1.667,0.532c0.729,0,1.344-0.243,1.848-0.725
	C261.742,407.32,262.084,406.603,262.263,405.649L262.263,405.649z M265.21,398.3h1.184v8.965l5.244-8.965h1.291v11.32h-1.183
	v-8.941l-5.23,8.941h-1.305L265.21,398.3L265.21,398.3z M275.099,398.3h1.184v8.965l5.244-8.965h1.291v11.32h-1.184v-8.941
	l-5.23,8.941h-1.305L275.099,398.3L275.099,398.3z M280.012,395.581h0.825c-0.066,0.651-0.273,1.152-0.616,1.499
	c-0.344,0.35-0.8,0.524-1.371,0.524c-0.573,0-1.032-0.174-1.373-0.519c-0.342-0.348-0.548-0.849-0.615-1.505h0.826
	c0.062,0.356,0.188,0.622,0.374,0.796c0.186,0.176,0.438,0.263,0.752,0.263c0.365,0,0.64-0.084,0.826-0.256
	C279.823,396.216,279.95,395.947,280.012,395.581L280.012,395.581z M291.979,405.649l1.307,0.38
	c-0.273,1.231-0.764,2.166-1.472,2.811c-0.709,0.646-1.576,0.97-2.601,0.97c-1.059,0-1.922-0.248-2.587-0.746
	c-0.665-0.495-1.169-1.215-1.516-2.155c-0.346-0.943-0.52-1.953-0.52-3.033c0-1.178,0.195-2.205,0.587-3.083
	c0.392-0.878,0.949-1.544,1.672-2c0.722-0.456,1.518-0.682,2.385-0.682c0.986,0,1.814,0.287,2.483,0.864
	c0.672,0.577,1.14,1.386,1.404,2.43l-1.28,0.348c-0.227-0.822-0.56-1.423-0.993-1.797c-0.434-0.377-0.979-0.564-1.637-0.564
	c-0.755,0-1.388,0.208-1.894,0.624c-0.507,0.416-0.864,0.977-1.068,1.678c-0.206,0.704-0.309,1.428-0.309,2.174
	c0,0.962,0.121,1.802,0.365,2.519c0.243,0.719,0.621,1.254,1.135,1.61s1.069,0.532,1.667,0.532c0.729,0,1.344-0.243,1.848-0.725
	C291.459,407.32,291.8,406.603,291.979,405.649L291.979,405.649z M294.926,398.3h1.307v4.964c0.594,0,1.013-0.134,1.254-0.401
	c0.243-0.266,0.55-0.904,0.926-1.916c0.273-0.746,0.498-1.27,0.677-1.576c0.177-0.308,0.429-0.567,0.757-0.775
	c0.326-0.208,0.688-0.314,1.082-0.314c0.502,0,0.766,0.005,0.793,0.016v1.297c-0.046,0-0.133-0.003-0.262-0.008
	c-0.144-0.005-0.232-0.008-0.264-0.008c-0.415,0-0.725,0.116-0.926,0.348c-0.206,0.232-0.44,0.727-0.706,1.483
	c-0.33,0.959-0.61,1.565-0.84,1.815c-0.227,0.248-0.502,0.448-0.818,0.598c0.635,0.2,1.263,0.878,1.883,2.026l2.029,3.768H300.2
	l-1.654-3.067c-0.452-0.851-0.83-1.436-1.133-1.752c-0.305-0.319-0.697-0.477-1.181-0.477v5.297h-1.307L294.926,398.3L294.926,398.3
	z M302.94,398.3h1.184v8.965l5.244-8.965h1.291v11.32h-1.183v-8.941l-5.23,8.941h-1.305L302.94,398.3L302.94,398.3z M312.83,398.3
	h1.184v8.965l5.244-8.965h1.291v11.32h-1.184v-8.941l-5.23,8.941h-1.305L312.83,398.3L312.83,398.3z M317.742,395.581h0.825
	c-0.066,0.651-0.273,1.152-0.617,1.499c-0.344,0.35-0.8,0.524-1.371,0.524c-0.573,0-1.032-0.174-1.374-0.519
	c-0.342-0.348-0.548-0.849-0.615-1.505h0.825c0.062,0.356,0.188,0.622,0.374,0.796c0.186,0.176,0.438,0.263,0.752,0.263
	c0.365,0,0.64-0.084,0.826-0.256C317.554,396.216,317.68,395.947,317.742,395.581L317.742,395.581z M326.543,398.3h1.307v4.964
	c0.594,0,1.013-0.134,1.254-0.401c0.243-0.266,0.55-0.904,0.926-1.916c0.273-0.746,0.498-1.27,0.677-1.576
	c0.177-0.308,0.429-0.567,0.757-0.775c0.326-0.208,0.688-0.314,1.083-0.314c0.502,0,0.766,0.005,0.793,0.016v1.297
	c-0.046,0-0.133-0.003-0.262-0.008c-0.144-0.005-0.232-0.008-0.264-0.008c-0.415,0-0.725,0.116-0.926,0.348
	c-0.206,0.232-0.44,0.727-0.706,1.483c-0.331,0.959-0.61,1.565-0.84,1.815c-0.227,0.248-0.502,0.448-0.818,0.598
	c0.635,0.2,1.263,0.878,1.883,2.026l2.029,3.768h-1.618l-1.654-3.067c-0.452-0.851-0.83-1.436-1.133-1.752
	c-0.305-0.319-0.697-0.477-1.181-0.477v5.297h-1.307V398.3L326.543,398.3z M333.977,404.11c0-1.876,0.44-3.346,1.319-4.408
	c0.878-1.062,2.011-1.591,3.401-1.591c0.91,0,1.729,0.25,2.46,0.748c0.729,0.498,1.286,1.194,1.67,2.087
	c0.383,0.891,0.576,1.903,0.576,3.033c0,1.146-0.202,2.174-0.605,3.078c-0.404,0.906-0.975,1.592-1.713,2.055
	c-0.741,0.466-1.539,0.698-2.394,0.698c-0.929,0-1.756-0.258-2.488-0.772c-0.729-0.514-1.284-1.215-1.66-2.106
	C334.165,406.045,333.977,405.104,333.977,404.11L333.977,404.11z M335.325,404.137c0,1.362,0.319,2.435,0.956,3.218
	c0.637,0.782,1.438,1.175,2.401,1.175c0.981,0,1.786-0.396,2.422-1.186c0.633-0.79,0.949-1.913,0.949-3.368
	c0-0.919-0.135-1.723-0.406-2.408s-0.667-1.217-1.188-1.594c-0.523-0.377-1.108-0.567-1.757-0.567c-0.922,0-1.715,0.364-2.38,1.091
	C335.658,401.225,335.325,402.437,335.325,404.137L335.325,404.137z M345.05,409.62V398.3h1.954l2.33,8.013
	c0.216,0.746,0.372,1.304,0.47,1.676c0.113-0.411,0.289-1.017,0.527-1.816l2.371-7.874h1.745v11.32h-1.252v-9.47l-2.875,9.47h-1.174
	l-2.843-9.644v9.644h-1.253V409.62z M356.511,409.62V398.3h1.954l2.33,8.013c0.215,0.746,0.371,1.304,0.47,1.676
	c0.112-0.411,0.289-1.017,0.527-1.816l2.371-7.874h1.745v11.32h-1.252v-9.47l-2.875,9.47h-1.174l-2.843-9.644v9.644h-1.253V409.62z
	 M368.027,409.62V398.3h7.113v1.328h-5.806v3.478h5.435v1.328h-5.435v3.858h6.04v1.328H368.027L368.027,409.62z M377.177,409.62
	V398.3h3.719c0.653,0,1.153,0.037,1.5,0.108c0.484,0.092,0.89,0.269,1.217,0.527c0.328,0.261,0.592,0.625,0.791,1.091
	c0.199,0.466,0.298,0.98,0.298,1.542c0,0.959-0.266,1.773-0.8,2.438c-0.532,0.666-1.497,0.999-2.892,0.999h-2.527v4.616
	L377.177,409.62L377.177,409.62z M378.484,403.676h2.546c0.844,0,1.44-0.179,1.795-0.54c0.354-0.361,0.53-0.867,0.53-1.523
	c0-0.472-0.104-0.878-0.312-1.215c-0.209-0.337-0.484-0.561-0.823-0.669c-0.22-0.066-0.626-0.1-1.215-0.1h-2.52v4.047
	L378.484,403.676L378.484,403.676z M393.384,409.62h-1.307v-4.559c-1.17,0.498-2.195,0.748-3.073,0.748
	c-0.686,0-1.291-0.184-1.814-0.553c-0.525-0.366-0.876-0.835-1.053-1.402c-0.177-0.567-0.266-1.307-0.266-2.224v-3.331h1.307v3.191
	c0,1.236,0.195,2.05,0.587,2.44c0.392,0.388,0.864,0.583,1.415,0.583c0.92,0,1.885-0.235,2.896-0.704v-5.51h1.307L393.384,409.62
	L393.384,409.62z M395.551,409.62V398.3h7.113v1.328h-5.806v3.478h5.434v1.328h-5.434v3.858h6.04v1.328H395.551L395.551,409.62z
	 M411.717,405.649l1.307,0.38c-0.273,1.231-0.764,2.166-1.472,2.811c-0.709,0.646-1.576,0.97-2.6,0.97
	c-1.059,0-1.922-0.248-2.587-0.746c-0.665-0.495-1.169-1.215-1.516-2.155c-0.346-0.943-0.52-1.953-0.52-3.033
	c0-1.178,0.195-2.205,0.587-3.083c0.392-0.878,0.949-1.544,1.672-2c0.722-0.456,1.518-0.682,2.385-0.682
	c0.986,0,1.814,0.287,2.483,0.864c0.672,0.577,1.14,1.386,1.403,2.43l-1.28,0.348c-0.227-0.822-0.56-1.423-0.993-1.797
	c-0.433-0.377-0.979-0.564-1.637-0.564c-0.755,0-1.388,0.208-1.894,0.624c-0.507,0.416-0.864,0.977-1.068,1.678
	c-0.206,0.704-0.31,1.428-0.31,2.174c0,0.962,0.121,1.802,0.365,2.519c0.243,0.719,0.621,1.254,1.135,1.61s1.069,0.532,1.667,0.532
	c0.729,0,1.344-0.243,1.849-0.725C411.197,407.32,411.539,406.603,411.717,405.649L411.717,405.649z M414.664,398.3h1.307v4.964
	c0.594,0,1.013-0.134,1.254-0.401c0.243-0.266,0.55-0.904,0.926-1.916c0.273-0.746,0.498-1.27,0.677-1.576
	c0.177-0.308,0.429-0.567,0.757-0.775c0.326-0.208,0.688-0.314,1.082-0.314c0.502,0,0.766,0.005,0.793,0.016v1.297
	c-0.046,0-0.133-0.003-0.262-0.008c-0.144-0.005-0.232-0.008-0.264-0.008c-0.415,0-0.725,0.116-0.926,0.348
	c-0.206,0.232-0.44,0.727-0.706,1.483c-0.33,0.959-0.61,1.565-0.84,1.815c-0.227,0.248-0.502,0.448-0.818,0.598
	c0.635,0.2,1.263,0.878,1.883,2.026l2.029,3.768h-1.619l-1.653-3.067c-0.452-0.851-0.83-1.436-1.133-1.752
	c-0.305-0.319-0.697-0.477-1.181-0.477v5.297h-1.307V398.3L414.664,398.3L414.664,398.3z M422.678,398.3h1.183v8.965l5.244-8.965
	h1.291v11.32h-1.184v-8.941l-5.23,8.941h-1.305V398.3H422.678z M432.568,398.3h1.184v8.965l5.244-8.965h1.291v11.32h-1.184v-8.941
	l-5.23,8.941h-1.305L432.568,398.3L432.568,398.3z M437.48,395.581h0.825c-0.066,0.651-0.273,1.152-0.617,1.499
	c-0.344,0.35-0.8,0.524-1.371,0.524c-0.573,0-1.032-0.174-1.374-0.519c-0.342-0.348-0.548-0.849-0.615-1.505h0.825
	c0.062,0.356,0.188,0.622,0.374,0.796c0.186,0.176,0.438,0.263,0.752,0.263c0.365,0,0.64-0.084,0.826-0.256
	C437.292,396.216,437.418,395.947,437.48,395.581L437.48,395.581z M446.309,398.3h6.398v1.328h-5.091v3.494h2.353
	c0.869,0,1.559,0.095,2.073,0.287c0.514,0.19,0.924,0.548,1.234,1.078c0.309,0.527,0.463,1.141,0.463,1.842
	c0,0.572-0.11,1.107-0.333,1.602c-0.222,0.498-0.552,0.904-0.993,1.217c-0.438,0.314-1.188,0.472-2.245,0.472h-3.859V398.3
	L446.309,398.3z M447.615,408.34h2.607c0.704,0,1.232-0.163,1.585-0.493c0.351-0.329,0.527-0.822,0.527-1.478
	c0-0.469-0.101-0.859-0.302-1.173c-0.202-0.313-0.482-0.522-0.839-0.624c-0.36-0.103-0.972-0.153-1.837-0.153h-1.741V408.34
	L447.615,408.34z M453.901,409.62l3.779-11.32h1.433l4.011,11.32h-1.484l-1.139-3.431h-4.148l-1.069,3.431H453.901L453.901,409.62z
	 M456.735,404.972h3.357l-1.027-3.138c-0.31-0.954-0.544-1.742-0.707-2.364c-0.135,0.738-0.316,1.463-0.543,2.179L456.735,404.972
	L456.735,404.972z M464.213,409.62V398.3h1.307v4.664h5.091V398.3h1.307v11.32h-1.307v-5.328h-5.091v5.328H464.213L464.213,409.62z
	 M474.121,398.3h1.307v4.964c0.594,0,1.014-0.134,1.254-0.401c0.243-0.266,0.55-0.904,0.926-1.916
	c0.273-0.746,0.497-1.27,0.676-1.576c0.177-0.308,0.429-0.567,0.757-0.775c0.326-0.208,0.688-0.314,1.083-0.314
	c0.502,0,0.766,0.005,0.793,0.016v1.297c-0.046,0-0.133-0.003-0.261-0.008c-0.144-0.005-0.231-0.008-0.264-0.008
	c-0.415,0-0.725,0.116-0.926,0.348c-0.207,0.232-0.44,0.727-0.706,1.483c-0.33,0.959-0.61,1.565-0.839,1.815
	c-0.227,0.248-0.502,0.448-0.818,0.598c0.635,0.2,1.263,0.878,1.883,2.026l2.029,3.768h-1.619l-1.653-3.067
	c-0.452-0.851-0.83-1.436-1.133-1.752c-0.305-0.319-0.697-0.477-1.181-0.477v5.297h-1.307V398.3L474.121,398.3L474.121,398.3z"/>
</svg>
